<svg stroke="var(--primary-color)" fill="transparent" width="22px" height="22px" viewBox="0 0 23 23" xmlns="http://www.w3.org/2000/svg" data-v-fd7695d4=""><path fill-rule="evenodd" clip-rule="evenodd" d="M12.0002 1.35352C14.765 1.35352 17.2693 2.43725 19.0815 4.19319C20.8831 5.93876 22 8.34951 22 11.014C22 13.6783 20.883 16.0889 19.0814 17.8343C17.2692 19.5902 14.7649 20.6738 12.0002 20.6738C10.1353 20.6738 8.38962 20.1806 6.89438 19.3213L2.04012 20.8272L3.61777 16.2831C2.59531 14.7686 2 12.9586 2 11.014C2 8.34945 3.11699 5.9387 4.91863 4.19313C6.73094 2.43723 9.23527 1.35352 12.0002 1.35352Z" stroke="var(--primary-color)" stroke-width="2"></path><path fill-rule="evenodd" clip-rule="evenodd" d="M8.90839 6.2818C8.81629 6.27753 8.71642 6.27344 8.60716 6.27344C8.26122 6.27344 7.90253 6.37215 7.68639 6.5864C7.42334 6.84712 6.76562 7.45779 6.76562 8.71168C6.76562 9.96575 7.70826 11.1775 7.8396 11.3476C7.97131 11.5175 9.67806 14.1286 12.3335 15.1946C14.4061 16.0264 15.0215 15.9523 15.4944 15.8521C16.1824 15.7066 17.0464 15.2156 17.2656 14.6207C17.4848 14.0255 17.4848 13.5153 17.4191 13.4093C17.3533 13.3029 17.1779 13.2394 16.9149 13.1116C16.6518 12.9842 15.3583 12.3676 15.1173 12.2828C14.8761 12.1978 14.6531 12.2238 14.4677 12.4722C14.2118 12.8155 13.9656 13.1682 13.7617 13.3773C13.6017 13.5415 13.3442 13.5644 13.1228 13.4732C12.8317 13.353 12.0121 13.0763 11.0072 12.2083C10.2254 11.533 9.69734 10.6986 9.54385 10.4434C9.39035 10.1885 9.53032 10.0364 9.6486 9.89771C9.78349 9.73941 9.90791 9.62574 10.0394 9.47711C10.171 9.32821 10.2444 9.24892 10.3321 9.07864C10.4198 8.90873 10.3608 8.73333 10.295 8.60572C10.2291 8.4781 9.70242 7.2244 9.48389 6.71383C9.31006 6.30792 9.1769 6.29416 8.90839 6.2818Z" fill="var(--primary-color)" stroke="var(--primary-color)"></path></svg>