<svg id="icon" width="32px" height="32px" viewBox="0 0 118 118" xmlns="http://www.w3.org/2000/svg" xmlns:xlink="http://www.w3.org/1999/xlink">
                    <g stroke="none" stroke-width="1" fill="none" fill-rule="evenodd">
                        <g id="launcher-icon-svg">
                            <path d="M59,118 C91.584801,118 118,91.584801 118,59 C118,26.415199 91.584801,0 59,0 C26.415199,0 0,26.415199 0,59 C0,91.584801 26.415199,118 59,118 Z" id="launcher-icon-bg"></path>
                            <path d="M29.5,38.104171 C29.5,35.388771 31.701267,33.1875 34.416667,33.1875 L83.583332,33.1875 C86.298729,33.1875 88.5,35.388767 88.5,38.104167 L88.5,77.437496 C88.5,80.152896 86.298733,82.354167 83.583332,82.354167 L34.416669,82.354167 C31.701269,82.354167 29.5,80.1529 29.5,77.4375 L29.5,38.104171 Z" id="Fill-34" fill="#FFFFFF"></path>
                            <path d="M73.749969,82.353615 L78.666636,82.353615 L78.666636,87.270508 C78.666636,84.557494 76.462852,82.353615 73.749969,82.353615 Z" id="Fill-35" fill="#FFFFFF"></path>
                            <path d="M88.5,87.271688 C88.5,84.556288 86.298733,82.355021 83.583333,82.355021 C80.867934,82.355021 78.666667,84.556288 78.666667,87.271688 C78.666667,89.987088 80.867934,92.188355 83.583333,92.188355 C86.298733,92.188355 88.5,89.987088 88.5,87.271688 Z" id="Fill-36" fill="#FFFFFF"></path>
                            <polygon id="Fill-37" fill="#FFFFFF" points="78.667969 74.979157 88.501302 74.979157 88.501302 87.270823 78.667969 87.270823"></polygon>
                            <path d="M76.942884,60.354912 L81.483227,63.457259 C81.560711,63.510178 81.626572,63.577226 81.676983,63.654564 C81.727394,63.731903 81.761377,63.818033 81.77702,63.907982 C81.792662,63.997932 81.789629,64.089939 81.768112,64.178767 C81.746595,64.267595 81.70702,64.351473 81.65163,64.425618 C78.271334,68.7693 74.236162,71.558819 69.546156,72.794179 C64.856151,74.029538 59.07893,74.067397 52.214392,72.907754 C52.119956,72.891355 52.029844,72.856979 51.94953,72.80662 C51.869216,72.756261 51.800296,72.690969 51.746791,72.614605 C51.693286,72.538239 51.65632,72.452334 51.638075,72.362026 C51.619831,72.271717 51.62069,72.17882 51.640587,72.088833 L52.825577,66.768841 L53.655032,66.236831 C55.894122,66.646612 58.158681,66.916158 60.434332,67.043785 C62.462171,67.135079 64.493989,66.986519 66.483911,66.601452 C68.399372,66.243115 70.213057,65.497272 71.803843,64.413688 C73.380541,63.303696 74.783493,61.983233 75.969997,60.492421 C76.082439,60.353763 76.246357,60.262064 76.427626,60.236449 C76.608892,60.210834 76.793476,60.253256 76.942884,60.354912 L76.942884,60.354912 Z" id="launcher-icon-smile" style="fill: rgb(255, 203, 1);"></path>
                        </g>
                    </g>
                </svg>