<svg style="fill:white" viewBox="0 0 40 40" width="40" height="40" xmlns="http://www.w3.org/2000/svg">
                                        <path d="M21.414,20L33.207,8.207c0.391-0.39,0.391-1.023,0-1.414c-0.391-0.391-1.023-0.391-1.414,0L20,18.586L8.207,6.793
                                        	c-0.39-0.391-1.023-0.391-1.414,0c-0.391,0.391-0.391,1.023,0,1.414L18.586,20L6.793,31.793c-0.391,0.391-0.391,1.023,0,1.414
                                        	C6.988,33.402,7.245,33.5,7.5,33.5c0.256,0,0.511-0.098,0.707-0.293L20,21.414l11.793,11.793c0.195,0.195,0.451,0.293,0.707,0.293
                                        	s0.512-0.098,0.707-0.293c0.391-0.391,0.391-1.023,0-1.414L21.414,20z"></path>
                                    </svg>