<svg width="65" height="64" viewBox="0 0 65 64" fill="none" xmlns="http://www.w3.org/2000/svg">
<path d="M32.5 0C50.1731 0 64.5 14.3269 64.5 32C64.5 49.6731 50.1731 64 32.5 64C14.8269 64 0.5 49.6731 0.5 32C0.5 14.5036 14.5418 0.286873 31.9708 0.00428724L32.5 0ZM35.7432 55.8778L35.6427 55.8857C34.6087 55.9613 33.5604 56 32.5 56C31.405 56 30.3229 55.9588 29.2562 55.8782L29.2505 55.8567C29.2825 55.9644 29.3145 56.0708 29.3467 56.1758L29.541 56.7897C29.5735 56.8893 29.6062 56.9876 29.6389 57.0845L29.8358 57.6496L30.0335 58.1817C30.0665 58.2676 30.0995 58.3522 30.1324 58.4353L30.3298 58.9175L30.526 59.3659C30.5911 59.5097 30.6559 59.6478 30.7202 59.7802L30.9116 60.1602L31.0995 60.5055C31.1305 60.5601 31.1613 60.6133 31.1919 60.665L31.3729 60.9577C31.8189 61.6451 32.2131 62 32.5 62C32.7869 62 33.1811 61.6451 33.6271 60.9577L33.8081 60.665C33.8387 60.6133 33.8695 60.5601 33.9005 60.5055L34.0884 60.1602L34.2798 59.7802C34.312 59.714 34.3442 59.6464 34.3766 59.5773L34.5719 59.1459C34.6046 59.0712 34.6374 58.995 34.6702 58.9175L34.8676 58.4353C34.9005 58.3522 34.9335 58.2676 34.9665 58.1817L35.1642 57.6496L35.3611 57.0845C35.3938 56.9876 35.4265 56.8893 35.459 56.7897L35.6533 56.1758C35.6834 56.0776 35.7134 55.9783 35.7432 55.8778ZM16.735 52.8902L16.76 52.925C20.1183 57.6131 24.582 60.8044 29.5323 61.7257C29.2515 61.277 28.9783 60.7657 28.714 60.1967L28.4979 59.714L28.2859 59.2057C28.1461 58.8583 28.0091 58.4942 27.8752 58.114L27.6766 57.5317L27.4827 56.9259L27.2937 56.297L27.1133 55.6614C23.3966 55.1889 19.898 54.2357 16.735 52.8902ZM48.2649 52.8902L48.0784 52.9689C44.9647 54.273 41.5305 55.1982 37.8867 55.6614L37.7063 56.297L37.5173 56.9259L37.3234 57.5317L37.1248 58.114C36.9909 58.4942 36.8539 58.8583 36.7141 59.2057L36.5021 59.714L36.286 60.1967C36.0217 60.7657 35.7485 61.277 35.4675 61.7263C40.4303 60.8021 44.9037 57.5973 48.2649 52.8902ZM5.27627 44.6203L5.4331 44.9538C8.44048 51.2263 13.5641 56.2914 19.8789 59.2239C17.3285 57.1167 15.0954 54.3899 13.2989 51.2011C10.1101 49.4046 7.38329 47.1715 5.27627 44.6203ZM59.7239 44.6211L59.7057 44.6422C57.6011 47.1843 54.8808 49.4097 51.7011 51.2011C49.9046 54.3899 47.6715 57.1167 45.1203 59.2237C51.5472 56.2397 56.7397 51.0472 59.7239 44.6211ZM38.252 39.8704L37.6906 39.8953L36.6717 39.9326C36.501 39.9382 36.3299 39.9434 36.1584 39.9483L35.1245 39.9735L34.0812 39.9904L32.5 40L31.4437 39.9957C31.2684 39.9943 31.0934 39.9925 30.9188 39.9904L29.8755 39.9735L28.8416 39.9483L27.8176 39.915C27.6478 39.9087 27.4784 39.9022 27.3094 39.8953L26.748 39.8704C27.0864 45.1335 27.7606 49.9372 28.7055 53.826C29.948 53.9405 31.214 54 32.5 54C33.786 54 35.052 53.9405 36.2936 53.8253L36.2166 54.1423C37.2024 50.1991 37.9044 45.2771 38.252 39.8704ZM14.5871 49.3886L14.7691 49.7306C18.2155 51.5929 22.2271 52.9304 26.5903 53.5719L26.5886 53.5615L26.4257 52.8253L26.2685 52.0691L26.1171 51.2936L25.9715 50.4993L25.832 49.6867L25.6986 48.8562L25.5715 48.0086L25.4508 47.1442L25.3367 46.2635L25.2293 45.3673L25.1287 44.4558C25.1125 44.3027 25.0966 44.149 25.081 43.9946L24.9908 43.0615L24.9078 42.1145L24.8321 41.1542L24.7638 40.1811L24.737 39.762L24.3189 39.7362L23.3458 39.6679L22.3855 39.5922L21.4385 39.5092L20.5054 39.419L19.5866 39.3219L18.6827 39.2178L17.7942 39.1071L16.9216 38.9896L16.0655 38.8658L15.2264 38.7355L14.4048 38.599L13.6012 38.4565L12.8162 38.3079C12.687 38.2827 12.5585 38.2572 12.4309 38.2315L11.6747 38.0743L10.9385 37.9114L10.9281 37.9098C11.5485 42.1292 12.8197 46.0199 14.5871 49.3886ZM54.0719 37.9098L54.0615 37.9114L53.3253 38.0743L52.5691 38.2315L51.7936 38.3829L50.9993 38.5285L50.1867 38.668L49.3562 38.8014L48.5086 38.9285L47.6442 39.0492L46.7635 39.1633L45.8673 39.2707L44.9558 39.3713C44.8027 39.3875 44.649 39.4034 44.4946 39.419L43.5615 39.5092L42.6145 39.5922L41.6542 39.6679L40.6811 39.7362L40.262 39.762L40.2362 40.1811L40.1679 41.1542L40.0922 42.1145L40.0092 43.0615L39.919 43.9946L39.8219 44.9134L39.7178 45.8173L39.6071 46.7058L39.4896 47.5784L39.3658 48.4345L39.2355 49.2736L39.099 50.0952L38.9565 50.8988L38.8079 51.6838C38.7827 51.813 38.7572 51.9415 38.7315 52.0691L38.5743 52.8253L38.4114 53.5615L38.4098 53.5719C42.7729 52.9304 46.7845 51.5929 50.2309 49.7306C52.0929 46.2845 53.4304 42.2729 54.0719 37.9098ZM2.77371 34.9675L2.81657 35.1866C3.79257 40.0618 6.972 44.4532 11.6098 47.7649C10.2643 44.602 9.3111 41.1034 8.83858 37.3867L8.20297 37.2063L7.57409 37.0173L6.96825 36.8234L6.386 36.6248C6.0058 36.4909 5.64168 36.3539 5.29434 36.2141L4.78598 36.0021L4.30332 35.786C3.73432 35.5217 3.22305 35.2485 2.77371 34.9675ZM62.2257 34.9677L62.2048 34.9808C61.7607 35.2572 61.2566 35.5259 60.6967 35.786L60.214 36.0021L59.7057 36.2141C59.3583 36.3539 58.9942 36.4909 58.614 36.6248L58.0317 36.8234L57.4259 37.0173L56.797 37.2063L56.1614 37.3867C55.6889 41.1034 54.7357 44.602 53.3902 47.765C58.0973 44.4037 61.3021 39.9303 62.2257 34.9677ZM32.5 26C30.5084 26 28.5471 26.0464 26.6366 26.1364C26.5464 28.0471 26.5 30.0084 26.5 32C26.5 33.9916 26.5464 35.9529 26.6364 37.8634C28.5471 37.9536 30.5084 38 32.5 38C34.4916 38 36.4529 37.9536 38.3634 37.8636C38.4536 35.9529 38.5 33.9916 38.5 32C38.5 30.0084 38.4536 28.0471 38.3636 26.1366C36.4529 26.0464 34.4916 26 32.5 26ZM10.9246 28.1452L10.6747 28.2064C10.5595 29.448 10.5 30.714 10.5 32C10.5 33.286 10.5595 34.552 10.6747 35.7936L10.3577 35.7166C14.3009 36.7024 19.2229 37.4044 24.6296 37.752L24.6047 37.1906L24.5674 36.1717C24.5618 36.001 24.5566 35.8299 24.5517 35.6584L24.5265 34.6245L24.5096 33.5812L24.5011 32.5292V31.4708L24.5096 30.4188L24.5265 29.3755L24.5517 28.3416L24.585 27.3176C24.5913 27.1478 24.5978 26.9784 24.6047 26.8094L24.6296 26.248C19.479 26.5792 14.7683 27.2319 10.9246 28.1452ZM40.3704 26.248L40.3953 26.8094L40.4326 27.8283C40.4382 27.999 40.4434 28.1701 40.4483 28.3416L40.4735 29.3755L40.4904 30.4188L40.5 32L40.4957 33.0563C40.4943 33.2316 40.4925 33.4066 40.4904 33.5812L40.4735 34.6245L40.4483 35.6584L40.415 36.6824C40.4087 36.8522 40.4022 37.0216 40.3953 37.1906L40.3704 37.752C45.6335 37.4136 50.4372 36.7394 54.326 35.7945C54.4405 34.552 54.5 33.286 54.5 32C54.5 30.714 54.4405 29.448 54.3253 28.2064L54.6423 28.2834C50.6991 27.2976 45.7771 26.5956 40.3704 26.248ZM8.62178 28.7562L8.64328 28.7505C8.5356 28.7825 8.42925 28.8145 8.32424 28.8467L7.71033 29.041C7.6107 29.0735 7.51243 29.1062 7.41552 29.1389L6.85043 29.3358L6.31828 29.5335C6.23235 29.5665 6.14781 29.5995 6.06466 29.6324L5.58253 29.8298L5.13413 30.026C4.99032 30.0911 4.85219 30.1559 4.71978 30.2202L4.33981 30.4116L3.99451 30.5995C3.93987 30.6305 3.88669 30.6613 3.83498 30.6919L3.54231 30.8729C2.85485 31.3189 2.5 31.7131 2.5 32C2.5 32.2869 2.85485 32.6811 3.54231 33.1271L3.83498 33.3081C3.88669 33.3387 3.93987 33.3695 3.99451 33.4005L4.33981 33.5884L4.71978 33.7798C4.78598 33.812 4.85362 33.8442 4.92268 33.8766L5.35409 34.0719C5.42883 34.1046 5.50497 34.1374 5.58253 34.1702L6.06466 34.3676C6.14781 34.4005 6.23235 34.4335 6.31828 34.4665L6.85043 34.6642L7.41552 34.8611C7.51243 34.8938 7.6107 34.9265 7.71033 34.959L8.32424 35.1533C8.4224 35.1834 8.52173 35.2134 8.62223 35.2432C8.54125 34.1771 8.5 33.095 8.5 32C8.5 30.905 8.54125 29.8229 8.62178 28.7562ZM56.3778 28.7568L56.3857 28.8573C56.4613 29.8913 56.5 30.9396 56.5 32C56.5 33.095 56.4588 34.1771 56.3782 35.2438L56.3567 35.2495C56.4644 35.2175 56.5708 35.1855 56.6758 35.1533L57.2897 34.959C57.3893 34.9265 57.4876 34.8938 57.5845 34.8611L58.1496 34.6642L58.6817 34.4665C58.7676 34.4335 58.8522 34.4005 58.9353 34.3676L59.4175 34.1702L59.8659 33.974C60.0097 33.9089 60.1478 33.8441 60.2802 33.7798L60.6602 33.5884L61.0055 33.4005C61.0601 33.3695 61.1133 33.3387 61.165 33.3081L61.4577 33.1271C62.1451 32.6811 62.5 32.2869 62.5 32C62.5 31.7131 62.1451 31.3189 61.4577 30.8729L61.165 30.6919C61.1133 30.6613 61.0601 30.6305 61.0055 30.5995L60.6602 30.4116L60.2802 30.2202C60.214 30.188 60.1464 30.1558 60.0773 30.1234L59.6459 29.9281C59.5712 29.8954 59.495 29.8626 59.4175 29.8298L58.9353 29.6324C58.8522 29.5995 58.7676 29.5665 58.6817 29.5335L58.1496 29.3358L57.5845 29.1389C57.4876 29.1062 57.3893 29.0735 57.2897 29.041L56.6758 28.8467C56.5776 28.8166 56.4783 28.7866 56.3778 28.7568ZM11.6098 16.235L11.575 16.26C6.88689 19.6183 3.69558 24.082 2.77428 29.0323C3.22305 28.7515 3.73432 28.4783 4.30332 28.214L4.78598 27.9979L5.29434 27.7859C5.64168 27.6461 6.0058 27.5091 6.386 27.3752L6.96825 27.1766L7.57409 26.9827L8.20297 26.7937L8.83858 26.6133C9.3111 22.8966 10.2643 19.398 11.6098 16.235ZM53.3902 16.2351L53.4689 16.4216C54.773 19.5353 55.6982 22.9695 56.1614 26.6133L56.797 26.7937L57.4259 26.9827L58.0317 27.1766L58.614 27.3752C58.9942 27.5091 59.3583 27.6461 59.7057 27.7859L60.214 27.9979L60.6967 28.214C61.2657 28.4783 61.777 28.7515 62.2263 29.0325C61.3021 24.0697 58.0973 19.5963 53.3902 16.2351ZM15.1114 14.0871L14.7694 14.2691C12.9071 17.7155 11.5696 21.7271 10.9281 26.0903L10.9385 26.0886L11.6747 25.9257L12.4309 25.7685L13.2064 25.6171L14.0007 25.4715L14.8133 25.332L15.6438 25.1986L16.4914 25.0715L17.3558 24.9508L18.2365 24.8367L19.1327 24.7293L20.0442 24.6287C20.1973 24.6125 20.351 24.5966 20.5054 24.581L21.4385 24.4908L22.3855 24.4078L23.3458 24.3321L24.3189 24.2638L24.737 24.237L24.7638 23.8189L24.8321 22.8458L24.9078 21.8855L24.9908 20.9385L25.081 20.0054L25.1781 19.0866L25.2822 18.1827L25.3929 17.2942L25.5104 16.4216L25.6342 15.5655L25.7645 14.7264L25.901 13.9048L26.0435 13.1012L26.1921 12.3162C26.2173 12.187 26.2428 12.0585 26.2685 11.9309L26.4257 11.1747L26.5886 10.4385L26.5903 10.4281C22.3708 11.0485 18.4801 12.3197 15.1114 14.0871ZM38.4098 10.4281L38.4114 10.4385L38.5743 11.1747L38.7315 11.9309L38.8829 12.7064L39.0285 13.5007L39.168 14.3133L39.3014 15.1438L39.4285 15.9914L39.5492 16.8558L39.6633 17.7365L39.7707 18.6327L39.8713 19.5442C39.8875 19.6973 39.9034 19.851 39.919 20.0054L40.0092 20.9385L40.0922 21.8855L40.1679 22.8458L40.2362 23.8189L40.262 24.237L40.6811 24.2638L41.6542 24.3321L42.6145 24.4078L43.5615 24.4908L44.4946 24.581L45.4134 24.6781L46.3173 24.7822L47.2058 24.8929L48.0784 25.0104L48.9345 25.1342L49.7736 25.2645L50.5952 25.401L51.3988 25.5435L52.1838 25.6921C52.313 25.7173 52.4415 25.7428 52.5691 25.7685L53.3253 25.9257L54.0615 26.0886L54.0719 26.0903C53.4304 21.7271 52.0929 17.7155 50.2306 14.2691C46.7845 12.4071 42.7729 11.0696 38.4098 10.4281ZM32.5 10C31.214 10 29.948 10.0595 28.7064 10.1747L28.7834 9.85765C27.7976 13.8009 27.0956 18.7229 26.748 24.1296L27.3094 24.1047L28.3283 24.0674C28.499 24.0618 28.6701 24.0566 28.8416 24.0517L29.8755 24.0265L30.9188 24.0096L31.9708 24.0011C32.1469 24.0004 32.3233 24 32.5 24L33.5563 24.0043C33.7316 24.0057 33.9066 24.0075 34.0812 24.0096L35.1245 24.0265L36.1584 24.0517L37.1824 24.085C37.3522 24.0913 37.5216 24.0978 37.6906 24.1047L38.252 24.1296C37.9136 18.8665 37.2394 14.0628 36.2945 10.174C35.052 10.0595 33.786 10 32.5 10ZM19.8797 4.77627L19.5462 4.9331C13.2737 7.94048 8.20865 13.0641 5.27612 19.3789C7.38329 16.8285 10.1101 14.5954 13.2989 12.7989C15.0954 9.61006 17.3285 6.88329 19.8797 4.77627ZM45.1211 4.77612L45.1422 4.79434C47.6843 6.89887 49.9097 9.61916 51.7011 12.7989C54.8899 14.5954 57.6167 16.8285 59.7237 19.3797C56.7397 12.9528 51.5472 7.76031 45.1211 4.77612ZM29.5325 2.27371L29.3134 2.31657C24.4382 3.29257 20.0468 6.472 16.7351 11.1098C19.898 9.76426 23.3966 8.8111 27.1133 8.33858L27.2937 7.70297L27.4827 7.07409L27.6766 6.46825L27.8752 5.886C28.0091 5.5058 28.1461 5.14168 28.2859 4.79434L28.4979 4.28598L28.714 3.80332C28.9783 3.23432 29.2515 2.72305 29.5325 2.27371ZM35.4677 2.27428L35.4808 2.29515C35.7572 2.73929 36.0259 3.24335 36.286 3.80332L36.5021 4.28598L36.7141 4.79434C36.8539 5.14168 36.9909 5.5058 37.1248 5.886L37.3234 6.46825L37.5173 7.07409L37.7063 7.70297L37.8867 8.33858C41.6034 8.8111 45.102 9.76425 48.265 11.1098C44.9037 6.40268 40.4303 3.19786 35.4677 2.27428ZM32.5 2C32.2131 2 31.8189 2.35485 31.3729 3.04231L31.1919 3.33498C31.1613 3.38669 31.1305 3.43987 31.0995 3.49451L30.9116 3.83981L30.7202 4.21978C30.688 4.28598 30.6558 4.35362 30.6234 4.42268L30.4281 4.85409C30.3954 4.92883 30.3626 5.00497 30.3298 5.08253L30.1324 5.56466C30.0995 5.64781 30.0665 5.73235 30.0335 5.81828L29.8358 6.35043L29.6389 6.91552C29.6062 7.01243 29.5735 7.1107 29.541 7.21033L29.3467 7.82424C29.3166 7.9224 29.2866 8.02173 29.2568 8.12223C30.3229 8.04125 31.405 8 32.5 8C33.595 8 34.6771 8.04125 35.7438 8.12178L35.7495 8.14328C35.7175 8.0356 35.6855 7.92925 35.6533 7.82424L35.459 7.21033C35.4265 7.1107 35.3938 7.01243 35.3611 6.91552L35.1642 6.35043L34.9665 5.81828C34.9335 5.73235 34.9005 5.64781 34.8676 5.56466L34.6702 5.08253L34.474 4.63413C34.4089 4.49032 34.3441 4.35219 34.2798 4.21978L34.0884 3.83981L33.9005 3.49451C33.8695 3.43987 33.8387 3.38669 33.8081 3.33498L33.6271 3.04231C33.1811 2.35485 32.7869 2 32.5 2Z" fill="#404040"/>
</svg>
